<?xml version="1.0" encoding="utf-8" ?>
<svg xmlns="http://www.w3.org/2000/svg" xmlns:xlink="http://www.w3.org/1999/xlink" width="168" height="168">
	<path fill="#6F1415" d="M82.1415 2.11161C85.6884 1.93255 88.1419 2.04044 90.911 4.54541Q91.6286 5.20226 92.2691 5.93445C97.6616 10.1253 100.951 16.7606 101.793 23.4922C102.048 25.5304 101.991 27.5811 102.149 29.6228C107.932 26.4858 112.168 17.2235 118.27 13.632C120.769 12.0907 124.21 10.6767 127.183 11.3863C129.772 12.0042 131.665 14.0293 132.999 16.2292C134.632 18.9203 135.675 21.922 136.669 24.8914C139.973 25.1929 142.442 25.6539 144.668 28.3613C146.226 30.2561 147.376 32.385 149.31 33.9553C151.945 34.2108 154.842 34.5609 157.263 35.7031C162.677 37.4507 164.969 40.2472 168 44.8156L168 51.6711L168 54.1515L167.958 54.2123C166.842 55.8458 166.463 57.9411 165.458 59.6725C161.807 65.9621 155.836 70.9522 149.523 74.351C156.313 79.91 162.329 84.0158 165.406 92.7041C166.114 94.7021 166.75 96.7783 166.954 98.8952C167.311 102.595 167.329 106.582 164.841 109.557C161.542 113.502 156.391 116.229 153.633 119.779C150.323 124.041 153.112 129.226 148.113 133.349C146.186 134.939 143.842 135.639 141.385 135.849C137.656 136.168 133.66 135.828 129.927 135.597C129.83 135.802 129.706 136.02 129.644 136.237C129.483 137.525 129.753 139.249 129.266 140.404L128.852 140.512L128.523 138.832C128.217 138.661 128.201 138.645 127.858 138.701C126.595 136.014 125.771 133.164 124.66 130.414C125.233 130.322 125.709 129.961 126.191 129.658C130.448 132.712 134.922 134.698 140.275 133.83C141.282 133.667 142.343 133.435 143.26 132.972C144.06 132.681 144.81 132.331 145.55 131.909C150.906 128.848 148.597 124.108 150.737 119.503C153.69 113.146 162.578 112.889 164.848 104.277C166.325 98.6708 163.563 93.2894 160.793 88.5547C156.519 81.25 151.133 77.5551 142.966 75.4274L142.818 73.8423C143.406 73.791 143.999 73.7251 144.576 73.5949C151.205 72.0988 157.603 66.6362 161.468 61.2082C162.652 59.5458 163.539 57.6683 164.626 55.9396C165.877 53.0009 167.082 50.1465 166.227 46.91C165.107 42.668 161.295 39.8594 157.698 37.7552C156.716 37.3551 155.712 36.9402 154.662 36.7613C152.393 36.3746 148.709 36.9135 146.81 35.586C145.933 34.973 145.462 33.8536 145.018 32.9183C143.938 30.6404 143.286 28.9763 141.173 27.4707C139.201 27.5276 136.473 28.4374 134.727 27.2042C133.604 26.4107 133.343 23.8337 133.082 22.5529C132.427 19.3401 131.21 16.1372 128.326 14.2623C126.637 13.1639 124.64 12.9929 122.72 13.4021C115.125 17.931 100.791 34.1209 98.2013 42.3156C97.4516 42.7472 97.1534 44.3793 96.9386 45.1754C96.829 45.5819 96.8685 45.7938 96.4988 46.019C96.2524 45.3416 96.4443 44.631 96.5617 43.9425C97.7177 38.5942 99.7761 33.9606 99.9953 28.3899C100.335 19.7587 97.0971 13.4146 91.388 7.23523C89.4782 5.61393 87.6833 4.38723 85.3288 3.4525C82.1735 3.57328 80.2223 6.04302 77.2902 6.8871C73.0169 5.76164 69.2467 2.62272 64.8202 5.19864C63.0534 6.22678 61.4359 7.66911 59.7972 8.90186C55.0044 12.5073 49.6636 16.0423 48.0276 22.2265C46.7574 27.0281 47.3985 34.5162 49.8818 38.7617C50.1706 39.2555 50.4956 39.745 50.857 40.1884C50.5093 40.5867 50.1465 41.1004 49.7368 41.4261C42.9303 37.2515 32.3761 34.876 24.5018 36.7569C20.9391 37.6079 17.8066 40.0323 15.9162 43.1553C14.0614 46.2195 14.2211 49.4171 13.658 52.8176C8.31148 57.8175 3.37706 60.4871 3.11149 68.7502C2.88581 75.7718 6.72132 81.7491 11.3527 86.706C11.5291 86.8947 11.7245 87.0608 11.9278 87.2194L12.2333 87.9202C7.95992 91.2016 2.56197 92.441 1.78177 98.611C1.10421 103.969 3.35895 110.211 6.62847 114.37C8.80965 117.144 11.8167 120.047 15.0743 121.454C16.9426 122.261 22.78 122.485 23.7226 123.558C25.9958 126.147 21.5452 133.617 28.9784 138.131C29.7968 138.628 30.647 138.844 31.5754 139.051C30.5778 139.298 29.6044 139.508 28.6647 139.934C27.7012 139.745 26.8713 139.13 26.0926 138.558C20.7453 134.631 23.3612 128.888 21.7559 126.123C21.0488 124.904 15.0994 123.608 13.4558 122.882C11.9495 122.216 10.5412 121.408 9.23702 120.4C5.78239 117.731 3.88763 114.796 2.03704 110.911C1.44082 109.659 0.900043 108.342 0.0531152 107.236L0 107.167L0 94.7424C2.404 91.605 5.4223 89.4207 8.70888 87.3034C3.95098 82.1367 0.82207 75.8841 0.969206 68.7215C1.07091 63.7705 2.88735 58.1682 6.74408 54.8555C8.47205 53.3713 10.4081 52.2488 12.0663 50.655C12.0689 49.3729 12.0647 48.0269 12.2943 46.7643C13.0491 42.6151 15.6438 39.0943 19.0911 36.7334C23.7761 33.5248 31.579 33.3873 36.9944 34.7081C40.1542 35.4788 43.1192 36.7882 46.3383 37.3928C46.1439 35.6946 45.8004 34.0154 45.5264 32.329C44.7075 27.2889 45.8635 19.1337 48.9405 14.9111C49.7766 13.7637 50.7917 12.7366 51.8761 11.8236C53.7222 10.2692 55.8819 9.13503 57.8059 7.687C59.7123 6.25231 61.2321 4.43084 63.3834 3.29799C64.878 2.51092 66.5642 2.01905 68.2642 2.10964C71.3806 2.27571 74.1422 4.38754 77.2899 4.16094C79.0022 4.03766 80.3014 2.40795 82.1415 2.11161Z"/>
	<path fill="#FCF7FD" d="M13.658 52.8176C14.2211 49.4171 14.0614 46.2195 15.9162 43.1553C17.8066 40.0323 20.9391 37.6079 24.5018 36.7569C32.3761 34.876 42.9303 37.2515 49.7368 41.4261C50.1465 41.1004 50.5093 40.5867 50.857 40.1884C55.0239 44.2284 59.4238 48.2041 63.3561 52.4673C66.0575 55.0999 68.8326 57.7212 71.019 60.8129C71.9614 62.5164 72.8439 64.3564 73.917 65.9751L74.2227 66.5811C73.9507 67.2197 73.7117 67.9767 73.3447 68.561C72.9797 69.473 72.7174 70.3816 72.4705 71.3308C71.2452 73.7194 68.8654 74.6538 66.8657 76.2974C66.4657 78.5398 66.552 82.3099 64.932 84.0364Q60.6067 83.964 56.281 84.0139C55.3152 84.0012 54.3795 83.8859 53.4235 83.7604C49.3719 83.7392 45.3071 83.559 41.2558 83.4557C38.3407 83.1753 35.3713 82.7858 32.443 82.7585C26.8415 82.7063 16.4485 83.7486 11.9278 87.2194C11.7245 87.0608 11.5291 86.8947 11.3527 86.706C6.72132 81.7491 2.88581 75.7718 3.11149 68.7502C3.37706 60.4871 8.31148 57.8175 13.658 52.8176Z"/>
	<path fill="#B71A46" d="M50.857 40.1884C55.0239 44.2284 59.4238 48.2041 63.3561 52.4673C63.6371 53.0197 63.9901 53.4738 63.8481 54.1216C63.8205 54.2472 63.7426 54.3553 63.6746 54.4608C59.43 49.8329 54.4989 45.5171 49.7368 41.4261C50.1465 41.1004 50.5093 40.5867 50.857 40.1884Z"/>
	<defs>
		<linearGradient id="gradient_0" gradientUnits="userSpaceOnUse" x1="70.19445" y1="60.091862" x2="68.198044" y2="62.020489">
			<stop offset="0" stop-color="#C22A4D"/>
			<stop offset="1" stop-color="#D73371"/>
		</linearGradient>
	</defs>
	<path fill="url(#gradient_0)" d="M63.3561 52.4673C66.0575 55.0999 68.8326 57.7212 71.019 60.8129C71.9614 62.5164 72.8439 64.3564 73.917 65.9751L74.2227 66.5811C73.9507 67.2197 73.7117 67.9767 73.3447 68.561C71.6111 63.3244 67.2537 58.507 63.6746 54.4608C63.7426 54.3553 63.8205 54.2472 63.8481 54.1216C63.9901 53.4738 63.6371 53.0197 63.3561 52.4673Z"/>
	<path fill="#FDBBDA" d="M61.1225 81.7854C59.8855 81.8825 58.6128 81.6908 57.3548 81.7624C51.389 82.1017 45.5026 82.9317 39.9203 80.1274C36.9421 78.6314 34.6825 76.1001 33.6416 72.9224C32.466 69.3335 32.935 65.7268 34.6464 62.3982Q35.0578 61.6005 35.5458 60.8472Q36.0338 60.094 36.5938 59.3925Q37.1538 58.6911 37.7802 58.0483Q38.4066 57.4054 39.0933 56.8276Q39.7801 56.2497 40.5205 55.7423Q41.2609 55.235 42.0477 54.8032Q42.8345 54.3713 43.6601 54.0192Q44.4857 53.6671 45.342 53.3981Q46.0904 53.1631 46.8585 53.0037Q47.6266 52.8443 48.4067 52.7621Q49.1868 52.6799 49.9712 52.6756Q50.7557 52.6713 51.5366 52.7451Q52.3176 52.8188 53.0873 52.9699Q53.8571 53.1209 54.608 53.3477Q55.359 53.5746 56.0836 53.8749Q56.8083 54.1753 57.4995 54.5462C62.9791 57.4449 69.1135 64.8371 70.9439 70.737C71.5118 71.1846 71.755 71.2167 72.4705 71.3308C71.2452 73.7194 68.8654 74.6538 66.8657 76.2974C66.4657 78.5398 66.552 82.3099 64.932 84.0364Q60.6067 83.964 56.281 84.0139C55.3152 84.0012 54.3795 83.8859 53.4235 83.7604C56.5172 83.3892 60.8806 84.4867 63.7076 83.2651L63.7447 82.8521C63.0383 82.1951 62.0295 82.0304 61.1225 81.7854Z"/>
	<path fill="#FB9AD2" d="M57.2876 81.033C56.3131 80.2804 55.3033 79.5358 54.5758 78.5282C53.6035 77.1818 52.9927 75.5689 53.3001 73.893C53.5438 72.5642 54.422 71.4739 55.5163 70.7277C58.2339 68.8743 62.632 68.3733 65.7749 69.1893C67.5217 69.6428 69.1604 70.4109 70.9439 70.737C71.5118 71.1846 71.755 71.2167 72.4705 71.3308C71.2452 73.7194 68.8654 74.6538 66.8657 76.2974C66.4657 78.5398 66.552 82.3099 64.932 84.0364Q60.6067 83.964 56.281 84.0139C55.3152 84.0012 54.3795 83.8859 53.4235 83.7604C56.5172 83.3892 60.8806 84.4867 63.7076 83.2651L63.7447 82.8521C63.0383 82.1951 62.0295 82.0304 61.1225 81.7854C59.8626 81.333 58.612 81.185 57.2876 81.033Z"/>
	<path fill="#FCF7FD" d="M11.9278 87.2194C16.4485 83.7486 26.8415 82.7063 32.443 82.7585C35.3713 82.7858 38.3407 83.1753 41.2558 83.4557C45.3071 83.559 49.3719 83.7392 53.4235 83.7604C54.3795 83.8859 55.3152 84.0012 56.281 84.0139Q60.6067 83.964 64.932 84.0364L64.5131 85.1169L65.5119 85.4888L65.2103 86.9747C65.7157 88.3028 66.2011 89.3267 67.5858 89.9487C68.8419 90.513 70.4967 90.5191 71.8521 90.4781C71.773 91.5068 71.8027 92.7466 71.5285 93.7331L71.5041 95.3005L71.9562 95.5048L72.3352 96.7176C70.9523 100.139 69.6977 103.928 67.5563 106.953C59.6488 118.12 45.7756 124.255 43.537 139.081C42.3944 139.093 41.4892 138.584 40.4882 138.095C37.6836 139.182 34.543 139.092 31.5754 139.051C30.647 138.844 29.7968 138.628 28.9784 138.131C21.5452 133.617 25.9958 126.147 23.7226 123.558C22.78 122.485 16.9426 122.261 15.0743 121.454C11.8167 120.047 8.80965 117.144 6.62847 114.37C3.35895 110.211 1.10421 103.969 1.78177 98.611C2.56197 92.441 7.95992 91.2016 12.2333 87.9202L11.9278 87.2194Z"/>
	<path fill="#C7416B" d="M56.281 84.0139Q60.6067 83.964 64.932 84.0364L64.5131 85.1169C61.5424 85.3059 58.4299 85.0745 55.4407 85.0472C51.945 85.0153 48.1515 85.26 44.6921 84.7803C47.6579 84.4121 53.926 85.5646 56.281 84.0139Z"/>
	<path fill="#B71A46" d="M11.9278 87.2194C16.4485 83.7486 26.8415 82.7063 32.443 82.7585C35.3713 82.7858 38.3407 83.1753 41.2558 83.4557C45.3071 83.559 49.3719 83.7392 53.4235 83.7604C54.3795 83.8859 55.3152 84.0012 56.281 84.0139C53.926 85.5646 47.6579 84.4121 44.6921 84.7803C43.5491 84.8059 42.4078 84.7027 41.2683 84.6241C31.4215 83.9739 21.4084 83.7289 12.2333 87.9202L11.9278 87.2194Z"/>
	<path fill="#C7416B" d="M71.5041 95.3005L71.9562 95.5048L72.3352 96.7176C70.9523 100.139 69.6977 103.928 67.5563 106.953C59.6488 118.12 45.7756 124.255 43.537 139.081C42.3944 139.093 41.4892 138.584 40.4882 138.095C43.8246 134.746 44.9328 129.779 47.8206 125.97C57.5964 113.076 65.5315 112.514 71.5041 95.3005Z"/>
	<path fill="#FDBBDA" d="M41.0703 90.176C47.5704 88.2256 54.0522 86.9229 60.8701 87.9747C57.6318 90.0427 53.915 91.8863 53.0269 95.9935C52.7583 97.2358 52.8536 98.5545 53.5581 99.6455C54.3996 100.949 55.8641 101.609 57.3384 101.893C59.7486 102.356 62.541 101.291 64.7868 102.06C63.553 103.566 62.1984 104.43 60.3783 105.078C51.8165 108.129 51.1192 98.0921 46.3524 93.3726C44.8888 91.9236 42.909 91.046 41.0703 90.176Z"/>
	<path fill="#FB9AD2" d="M65.2103 86.9747C65.7157 88.3028 66.2011 89.3267 67.5858 89.9487C68.8419 90.513 70.4967 90.5191 71.8521 90.4781C71.773 91.5068 71.8027 92.7466 71.5285 93.7331C70.629 93.9067 70.2805 94.0735 69.7494 94.856C68.0864 97.3062 67.0171 100.021 64.7868 102.06C62.541 101.291 59.7486 102.356 57.3384 101.893C55.8641 101.609 54.3996 100.949 53.5581 99.6455C52.8536 98.5545 52.7583 97.2358 53.0269 95.9935C53.915 91.8863 57.6318 90.0427 60.8701 87.9747C62.2934 87.5563 63.7595 87.2802 65.2103 86.9747Z"/>
	<path fill="#FCF7FD" d="M106.31 81.9987C112.79 82.0862 119.407 78.1662 125.502 76.4281C131.18 74.8088 136.946 74.1936 142.818 73.8423L142.966 75.4274C151.133 77.5551 156.519 81.25 160.793 88.5547C163.563 93.2894 166.325 98.6708 164.848 104.277C162.578 112.889 153.69 113.146 150.737 119.503C148.597 124.108 150.906 128.848 145.55 131.909C144.81 132.331 144.06 132.681 143.26 132.972C142.343 133.435 141.282 133.667 140.275 133.83C134.922 134.698 130.448 132.712 126.191 129.658C125.142 128.173 124.257 126.565 123.335 124.999Q121.108 120.811 118.479 116.862L118.072 115.519C113.757 111.183 108.795 107.208 104.098 103.288C101.228 100.893 98.2994 98.6119 95.826 95.7906C94.9425 95.2729 94.1524 93.7812 93.5806 92.9373Q93.4478 92.6755 93.3283 92.4075C91.8527 89.0803 93.795 86.5852 94.9765 83.5383C96.5062 83.5219 97.9845 83.5343 99.5069 83.7249C101.243 83.7497 103.252 83.7113 104.95 83.3598L104.44 83.0742L104.72 82.3106L106.31 81.9987Z"/>
	<path fill="#B71A46" d="M106.31 81.9987C112.79 82.0862 119.407 78.1662 125.502 76.4281C131.18 74.8088 136.946 74.1936 142.818 73.8423L142.966 75.4274C133.42 73.9126 123.047 78.8969 114.137 81.5096C111.116 82.3955 108.069 82.9588 104.95 83.3598L104.44 83.0742L104.72 82.3106L106.31 81.9987Z"/>
	<path fill="#E186D6" d="M118.072 115.519C122.937 117.894 128.465 124.805 133.745 128.117C135.288 129.084 142.708 132.252 143.101 132.756C143.156 132.827 143.208 132.9 143.26 132.972C142.343 133.435 141.282 133.667 140.275 133.83C134.922 134.698 130.448 132.712 126.191 129.658C125.142 128.173 124.257 126.565 123.335 124.999Q121.108 120.811 118.479 116.862L118.072 115.519Z"/>
	<path fill="#FDBBDA" d="M94.9765 83.5383C96.5062 83.5219 97.9845 83.5343 99.5069 83.7249C98.5013 83.7108 97.4888 83.6508 96.5026 83.8813L96.1886 84.1869C96.2307 84.728 96.5672 85.0763 96.9675 85.4113C98.4223 86.6287 101.384 85.9585 103.173 85.9844C105.561 85.5921 108.058 85.7661 110.476 85.6808C116.58 85.4655 124.057 84.2866 129.351 88.0832C131.841 89.8687 133.324 92.4064 133.812 95.4177C134.382 98.925 133.634 102.378 131.54 105.265C129.596 107.945 126.872 109.679 123.592 110.177C119.218 110.841 115.806 109.633 112.317 107.036C110.721 105.848 108.411 104.372 107.172 102.862C104.804 101.515 97.3383 95.9905 95.8517 94.0805C95.7311 93.9255 95.6508 93.9432 95.4659 93.8921C95.3885 94.622 95.9304 95.0234 95.8407 95.7102C95.8372 95.7372 95.8309 95.7638 95.826 95.7906C94.9425 95.2729 94.1524 93.7812 93.5806 92.9373Q93.4478 92.6755 93.3283 92.4075C91.8527 89.0803 93.795 86.5852 94.9765 83.5383Z"/>
	<path fill="#FB9AD2" d="M94.9765 83.5383C96.5062 83.5219 97.9845 83.5343 99.5069 83.7249C98.5013 83.7108 97.4888 83.6508 96.5026 83.8813L96.1886 84.1869C96.2307 84.728 96.5672 85.0763 96.9675 85.4113C98.4223 86.6287 101.384 85.9585 103.173 85.9844C105.547 86.1015 107.912 85.9757 110.284 86.0141C113.059 87.8147 116.215 89.1538 116.99 92.7545C117.482 95.0353 116.777 97.6714 115.527 99.6025C114.692 100.893 113.625 101.621 112.118 101.928C110.535 102.25 108.599 102.092 107.172 102.862C104.804 101.515 97.3383 95.9905 95.8517 94.0805C95.7311 93.9255 95.6508 93.9432 95.4659 93.8921C95.3885 94.622 95.9304 95.0234 95.8407 95.7102C95.8372 95.7372 95.8309 95.7638 95.826 95.7906C94.9425 95.2729 94.1524 93.7812 93.5806 92.9373Q93.4478 92.6755 93.3283 92.4075C91.8527 89.0803 93.795 86.5852 94.9765 83.5383Z"/>
	<path fill="#FCF7FD" d="M85.3288 3.4525C87.6833 4.38723 89.4782 5.61393 91.388 7.23523C97.0971 13.4146 100.335 19.7587 99.9953 28.3899C99.7761 33.9606 97.7177 38.5942 96.5617 43.9425C96.4443 44.631 96.2524 45.3416 96.4988 46.019C96.8685 45.7938 96.829 45.5819 96.9386 45.1754C97.1534 44.3793 97.4516 42.7472 98.2013 42.3156C95.6548 51.1508 94.5569 60.7983 90.8315 69.2507L90.2359 70.033C90.525 71.3817 93.1084 72.3982 93.9823 73.6237C95.3848 75.5902 96.0844 78.3606 96.7889 80.6567C97.1586 81.428 97.3321 82.06 98.2351 82.3491C100.249 82.994 102.626 82.0862 104.72 82.3106L104.44 83.0742L104.95 83.3598C103.252 83.7113 101.243 83.7497 99.5069 83.7249C97.9845 83.5343 96.5062 83.5219 94.9765 83.5383C93.795 86.5852 91.8527 89.0803 93.3283 92.4075Q93.4478 92.6755 93.5806 92.9373L93.135 93.9482C92.6065 93.3458 92.154 92.4977 91.7081 91.8221C91.4568 91.0013 91.166 90.419 90.4792 89.9092C89.6695 89.7502 88.9622 90.1264 88.2305 90.4289C86.1217 91.5372 84.4309 93.039 82.0742 93.6609C80.2591 93.8905 78.7562 93.4734 77.0238 93.0355Q76.5194 92.7166 76.0059 92.4125C75.3475 92.0272 74.9336 91.8483 74.179 92.0453L73.8928 92.7102C73.636 93.3815 73.4211 93.9883 73.3456 94.7105C73.0116 95.3672 72.6102 96.0367 72.3352 96.7176L71.9562 95.5048L71.5041 95.3005L71.5285 93.7331C71.8027 92.7466 71.773 91.5068 71.8521 90.4781C70.4967 90.5191 68.8419 90.513 67.5858 89.9487C66.2011 89.3267 65.7157 88.3028 65.2103 86.9747L65.5119 85.4888L64.5131 85.1169L64.932 84.0364C66.552 82.3099 66.4657 78.5398 66.8657 76.2974C68.8654 74.6538 71.2452 73.7194 72.4705 71.3308C72.7174 70.3816 72.9797 69.473 73.3447 68.561C73.7117 67.9767 73.9507 67.2197 74.2227 66.5811L73.917 65.9751C72.8439 64.3564 71.9614 62.5164 71.019 60.8129C68.8326 57.7212 66.0575 55.0999 63.3561 52.4673C59.4238 48.2041 55.0239 44.2284 50.857 40.1884C50.4956 39.745 50.1706 39.2555 49.8818 38.7617C47.3985 34.5162 46.7574 27.0281 48.0276 22.2265C49.6636 16.0423 55.0044 12.5073 59.7972 8.90186C61.4359 7.66911 63.0534 6.22678 64.8202 5.19864C69.2467 2.62272 73.0169 5.76164 77.2902 6.8871C80.2223 6.04302 82.1735 3.57328 85.3288 3.4525Z"/>
	<path fill="#FDBBDA" d="M98.2013 42.3156C95.6548 51.1508 94.5569 60.7983 90.8315 69.2507L90.2359 70.033C90.525 71.3817 93.1084 72.3982 93.9823 73.6237C95.3848 75.5902 96.0844 78.3606 96.7889 80.6567C97.1586 81.428 97.3321 82.06 98.2351 82.3491C100.249 82.994 102.626 82.0862 104.72 82.3106L104.44 83.0742L104.95 83.3598C103.252 83.7113 101.243 83.7497 99.5069 83.7249C97.9845 83.5343 96.5062 83.5219 94.9765 83.5383C93.795 86.5852 91.8527 89.0803 93.3283 92.4075Q93.4478 92.6755 93.5806 92.9373L93.135 93.9482C92.6065 93.3458 92.154 92.4977 91.7081 91.8221C91.4568 91.0013 91.166 90.419 90.4792 89.9092C89.6695 89.7502 88.9622 90.1264 88.2305 90.4289C86.1217 91.5372 84.4309 93.039 82.0742 93.6609C80.2591 93.8905 78.7562 93.4734 77.0238 93.0355Q76.5194 92.7166 76.0059 92.4125C75.3475 92.0272 74.9336 91.8483 74.179 92.0453L73.8928 92.7102C73.636 93.3815 73.4211 93.9883 73.3456 94.7105C73.0116 95.3672 72.6102 96.0367 72.3352 96.7176L71.9562 95.5048L71.5041 95.3005L71.5285 93.7331C71.8027 92.7466 71.773 91.5068 71.8521 90.4781C70.4967 90.5191 68.8419 90.513 67.5858 89.9487C66.2011 89.3267 65.7157 88.3028 65.2103 86.9747L65.5119 85.4888L64.5131 85.1169L64.932 84.0364C66.552 82.3099 66.4657 78.5398 66.8657 76.2974C68.8654 74.6538 71.2452 73.7194 72.4705 71.3308C72.7174 70.3816 72.9797 69.473 73.3447 68.561C73.7117 67.9767 73.9507 67.2197 74.2227 66.5811C74.7796 67.2298 74.9737 67.5792 75.8712 67.6482C78.9195 67.8822 81.5931 67.929 84.4311 66.688L86.781 67.596C87.0398 68.1838 87.3482 68.6113 87.7684 69.0952C88.1466 69.2149 88.3759 69.3618 88.7665 69.1853C91.604 67.9026 95.0853 47.9229 96.5617 43.9425C96.4443 44.631 96.2524 45.3416 96.4988 46.019C96.8685 45.7938 96.829 45.5819 96.9386 45.1754C97.1534 44.3793 97.4516 42.7472 98.2013 42.3156Z"/>
	<path fill="#C7416B" d="M80.5985 92.3617C83.5948 91.6931 85.8022 89.3861 88.8032 88.5622C88.8849 88.788 89.0452 89.0509 88.9439 89.2699C88.7435 89.7028 88.5279 90.0569 88.2305 90.4289C86.1217 91.5372 84.4309 93.039 82.0742 93.6609C81.4123 93.4969 80.573 93.2602 80.179 92.6738L80.5985 92.3617Z"/>
	<path fill="#E33E84" d="M98.2013 42.3156C95.6548 51.1508 94.5569 60.7983 90.8315 69.2507L90.2359 70.033C90.525 71.3817 93.1084 72.3982 93.9823 73.6237C95.3848 75.5902 96.0844 78.3606 96.7889 80.6567C97.1586 81.428 97.3321 82.06 98.2351 82.3491C100.249 82.994 102.626 82.0862 104.72 82.3106L104.44 83.0742L104.95 83.3598C103.252 83.7113 101.243 83.7497 99.5069 83.7249C97.9845 83.5343 96.5062 83.5219 94.9765 83.5383C93.795 86.5852 91.8527 89.0803 93.3283 92.4075Q93.4478 92.6755 93.5806 92.9373L93.135 93.9482C92.6065 93.3458 92.154 92.4977 91.7081 91.8221C91.4568 91.0013 91.166 90.419 90.4792 89.9092C89.6695 89.7502 88.9622 90.1264 88.2305 90.4289C88.5279 90.0569 88.7435 89.7028 88.9439 89.2699C89.0452 89.0509 88.8849 88.788 88.8032 88.5622C89.2624 88.3515 89.7435 88.1322 90.1619 87.8474C92.7127 86.1113 94.0464 81.3494 94.6103 78.4549C94.3187 77.4289 94.0211 76.4131 93.3367 75.5728C90.9724 72.6701 85.5391 69.0228 81.7838 68.6406C76.7381 68.127 74.3888 72.0913 71.2585 75.242C70.3297 76.1769 69.1993 76.9147 68.1762 77.7469C68.2046 80.1764 67.7496 84.9207 69.4308 86.7901C73.5811 87.8901 76.3312 92.037 80.5985 92.3617L80.179 92.6738C80.573 93.2602 81.4123 93.4969 82.0742 93.6609C80.2591 93.8905 78.7562 93.4734 77.0238 93.0355Q76.5194 92.7166 76.0059 92.4125C75.3475 92.0272 74.9336 91.8483 74.179 92.0453L73.8928 92.7102C73.636 93.3815 73.4211 93.9883 73.3456 94.7105C73.0116 95.3672 72.6102 96.0367 72.3352 96.7176L71.9562 95.5048L71.5041 95.3005L71.5285 93.7331C71.8027 92.7466 71.773 91.5068 71.8521 90.4781C70.4967 90.5191 68.8419 90.513 67.5858 89.9487C66.2011 89.3267 65.7157 88.3028 65.2103 86.9747L65.5119 85.4888L64.5131 85.1169L64.932 84.0364C66.552 82.3099 66.4657 78.5398 66.8657 76.2974C68.8654 74.6538 71.2452 73.7194 72.4705 71.3308C72.7174 70.3816 72.9797 69.473 73.3447 68.561C73.7117 67.9767 73.9507 67.2197 74.2227 66.5811C74.7796 67.2298 74.9737 67.5792 75.8712 67.6482C78.9195 67.8822 81.5931 67.929 84.4311 66.688L86.781 67.596C87.0398 68.1838 87.3482 68.6113 87.7684 69.0952C88.1466 69.2149 88.3759 69.3618 88.7665 69.1853C91.604 67.9026 95.0853 47.9229 96.5617 43.9425C96.4443 44.631 96.2524 45.3416 96.4988 46.019C96.8685 45.7938 96.829 45.5819 96.9386 45.1754C97.1534 44.3793 97.4516 42.7472 98.2013 42.3156Z"/>
	<path fill="#E186D6" d="M65.5119 85.4888C66.9761 85.4832 68.1974 86.4344 69.4796 87.0575C70.3236 87.9294 71.4537 88.8825 71.9271 90.0081L71.8521 90.4781C70.4967 90.5191 68.8419 90.513 67.5858 89.9487C66.2011 89.3267 65.7157 88.3028 65.2103 86.9747L65.5119 85.4888Z"/>
	<path fill="#FDBBDA" d="M71.019 60.8129C71.5275 60.2388 71.8937 59.9594 71.8766 59.1421C71.8362 57.2012 70.7686 54.7275 70.2414 52.8113C68.2898 45.7169 67.2441 36.8787 72.5048 30.9182C74.4522 28.7118 76.9138 27.1048 79.9055 26.9164C82.9276 26.726 85.829 27.9735 88.0627 29.9615C90.7579 32.3604 92.2553 35.4612 92.4367 39.0571C92.7939 46.1383 91.1733 54.5441 88.3958 61.0385C87.7949 63.1713 87.0748 65.3954 86.781 67.596L84.4311 66.688C81.5931 67.929 78.9195 67.8822 75.8712 67.6482C74.9737 67.5792 74.7796 67.2298 74.2227 66.5811L73.917 65.9751C72.8439 64.3564 71.9614 62.5164 71.019 60.8129Z"/>
	<path fill="#FB9AD2" d="M73.917 65.9751C74.0554 65.8769 74.2008 65.7748 74.318 65.6515C75.0296 64.9024 74.1984 62.0375 74.2284 60.9446C74.2657 59.5852 75.0531 58.1444 76.0353 57.2285C77.4251 55.9326 79.4325 55.2739 81.3177 55.34C86.3303 55.516 85.7698 58.2849 88.3463 60.9875L88.3958 61.0385C87.7949 63.1713 87.0748 65.3954 86.781 67.596L84.4311 66.688C81.5931 67.929 78.9195 67.8822 75.8712 67.6482C74.9737 67.5792 74.7796 67.2298 74.2227 66.5811L73.917 65.9751Z"/>
	<path fill="#FCF7FD" d="M122.72 13.4021C124.64 12.9929 126.637 13.1639 128.326 14.2623C131.21 16.1372 132.427 19.3401 133.082 22.5529C133.343 23.8337 133.604 26.4107 134.727 27.2042C136.473 28.4374 139.201 27.5276 141.173 27.4707C143.286 28.9763 143.938 30.6404 145.018 32.9183C145.462 33.8536 145.933 34.973 146.81 35.586C148.709 36.9135 152.393 36.3746 154.662 36.7613C155.712 36.9402 156.716 37.3551 157.698 37.7552C161.295 39.8594 165.107 42.668 166.227 46.91C167.082 50.1465 165.877 53.0009 164.626 55.9396C163.539 57.6683 162.652 59.5458 161.468 61.2082C157.603 66.6362 151.205 72.0988 144.576 73.5949C143.999 73.7251 143.406 73.791 142.818 73.8423C136.946 74.1936 131.18 74.8088 125.502 76.4281C119.407 78.1662 112.79 82.0862 106.31 81.9987L104.72 82.3106C102.626 82.0862 100.249 82.994 98.2351 82.3491C97.3321 82.06 97.1586 81.428 96.7889 80.6567C96.0844 78.3606 95.3848 75.5902 93.9823 73.6237C93.1084 72.3982 90.525 71.3817 90.2359 70.033L90.8315 69.2507C94.5569 60.7983 95.6548 51.1508 98.2013 42.3156C100.791 34.1209 115.125 17.931 122.72 13.4021Z"/>
	<path fill="#FDBBDA" d="M97.2403 60.0421C98.4344 54.2446 99.9328 48.6079 105.172 45.1376C108.195 43.1357 111.971 42.0896 115.57 42.8426Q116.197 42.9791 116.807 43.1761Q117.417 43.3732 118.005 43.629Q118.594 43.8848 119.154 44.1969Q119.714 44.509 120.241 44.8743Q120.768 45.2397 121.257 45.6549Q121.746 46.07 122.192 46.5309Q122.638 46.9919 123.037 47.4942Q123.435 47.9966 123.783 48.5355C126.089 52.0975 126.364 56.9729 125.459 61.0293C124.32 66.1353 120.901 70.188 116.547 72.9348C114.02 74.5294 103.793 79.5695 102.7 81.4938L102.869 81.8037C104.032 82.0755 105.143 81.9067 106.31 81.9987L104.72 82.3106C102.626 82.0862 100.249 82.994 98.2351 82.3491C97.3321 82.06 97.1586 81.428 96.7889 80.6567C96.0844 78.3606 95.3848 75.5902 93.9823 73.6237C93.1084 72.3982 90.525 71.3817 90.2359 70.033L90.8315 69.2507C91.3347 69.5138 91.4507 69.4728 91.9891 69.3904C93.8192 68.2166 96.2514 62.1107 97.2403 60.0421Z"/>
	<path fill="#FB9AD2" d="M97.2403 60.0421C100.887 58.4882 102.752 56.3901 107.108 58.156Q107.414 58.2802 107.706 58.4341Q107.997 58.5879 108.273 58.7699Q108.548 58.9519 108.804 59.1601Q109.059 59.3684 109.294 59.601Q109.528 59.8336 109.737 60.0881Q109.947 60.3427 110.131 60.6168Q110.315 60.8908 110.47 61.1817Q110.626 61.4726 110.752 61.7775C111.807 64.3063 111.326 67.226 110.299 69.68C107.191 77.1068 102.845 77.1882 96.7889 80.6567C96.0844 78.3606 95.3848 75.5902 93.9823 73.6237C93.1084 72.3982 90.525 71.3817 90.2359 70.033L90.8315 69.2507C91.3347 69.5138 91.4507 69.4728 91.9891 69.3904C93.8192 68.2166 96.2514 62.1107 97.2403 60.0421Z"/>
	<defs>
		<linearGradient id="gradient_1" gradientUnits="userSpaceOnUse" x1="90.376595" y1="162.03679" x2="73.519577" y2="94.995079">
			<stop offset="0" stop-color="#F7E4FB"/>
			<stop offset="1" stop-color="#FEF7FE"/>
		</linearGradient>
	</defs>
	<path fill="url(#gradient_1)" d="M88.2305 90.4289C88.9622 90.1264 89.6695 89.7502 90.4792 89.9092C91.166 90.419 91.4568 91.0013 91.7081 91.8221C92.154 92.4977 92.6065 93.3458 93.135 93.9482L93.5806 92.9373C94.1524 93.7812 94.9425 95.2729 95.826 95.7906C98.2994 98.6119 101.228 100.893 104.098 103.288C108.795 107.208 113.757 111.183 118.072 115.519L118.479 116.862Q121.108 120.811 123.335 124.999C124.257 126.565 125.142 128.173 126.191 129.658C125.709 129.961 125.233 130.322 124.66 130.414C125.771 133.164 126.595 136.014 127.858 138.701C128.823 142.066 128.636 145.071 126.912 148.177C125.428 150.851 122.922 153.311 119.924 154.162C115.035 155.55 110.03 152.409 105.027 154.045C99.2071 155.949 99.4146 161.88 92.4524 161.516C92.3526 161.418 92.2744 161.363 92.1437 161.309C89.3144 160.146 86.8092 158.326 84.3194 156.577C80.6068 159.838 77.153 162.702 72.0026 162.741C71.4199 162.798 70.8327 162.851 70.2471 162.861C64.9262 162.947 65.0576 160.341 61.8075 157.205C58.474 153.989 54.5425 156.902 50.7207 156.94C49.2012 156.954 47.6384 156.57 46.537 155.462C43.013 151.916 43.4658 143.732 43.537 139.081C45.7756 124.255 59.6488 118.12 67.5563 106.953C69.6977 103.928 70.9523 100.139 72.3352 96.7176C72.6102 96.0367 73.0116 95.3672 73.3456 94.7105C73.4211 93.9883 73.636 93.3815 73.8928 92.7102L74.179 92.0453C74.9336 91.8483 75.3475 92.0272 76.0059 92.4125Q76.5194 92.7166 77.0238 93.0355C78.7562 93.4734 80.2591 93.8905 82.0742 93.6609C84.4309 93.039 86.1217 91.5372 88.2305 90.4289Z"/>
	<path fill="#B71A46" d="M117.344 117.013L118.479 116.862Q121.108 120.811 123.335 124.999C124.257 126.565 125.142 128.173 126.191 129.658C125.709 129.961 125.233 130.322 124.66 130.414C123.915 129.163 123.226 127.914 122.605 126.596C120.675 123.479 119.455 120.088 117.344 117.013Z"/>
	<path fill="#E186D6" d="M72.0026 162.741C73.2574 162.386 74.7599 159.825 75.6232 158.795C76.8563 157.325 78.7591 155.119 80.8255 154.978C82.1364 154.889 83.3852 155.741 84.3194 156.577C80.6068 159.838 77.153 162.702 72.0026 162.741Z"/>
	<path fill="#C7416B" d="M93.135 93.9482L93.5806 92.9373C94.1524 93.7812 94.9425 95.2729 95.826 95.7906C98.2994 98.6119 101.228 100.893 104.098 103.288C108.795 107.208 113.757 111.183 118.072 115.519L118.479 116.862L117.344 117.013Q112.766 112.248 107.788 107.903C102.637 103.491 97.3496 99.6207 93.1808 94.2029L93.135 93.9482Z"/>
	<path fill="#FDBBDA" d="M88.2305 90.4289C88.9622 90.1264 89.6695 89.7502 90.4792 89.9092C91.166 90.419 91.4568 91.0013 91.7081 91.8221C92.154 92.4977 92.6065 93.3458 93.135 93.9482L93.1808 94.2029L92.4561 94.4074C92.1779 95.0441 92.3011 95.6216 92.5527 96.2497C93.033 97.4485 93.7526 98.5655 94.463 99.6383C96.2794 100.955 97.8058 103.132 98.3443 105.317C98.8003 107.167 98.7388 109.926 97.7012 111.589C96.5346 113.458 94.0649 113.879 92.0315 113.6C85.638 112.721 84.9355 112.006 79.1384 115.404C77.9991 116.072 76.8531 116.84 75.5409 117.11C74.7365 117.275 74.0544 116.985 73.4057 116.523C72.1497 115.628 71.6259 114.286 71.3451 112.829C69.9933 105.815 75.2278 99.2542 74.5677 95.2874L73.3456 94.7105C73.4211 93.9883 73.636 93.3815 73.8928 92.7102L74.179 92.0453C74.9336 91.8483 75.3475 92.0272 76.0059 92.4125Q76.5194 92.7166 77.0238 93.0355C78.7562 93.4734 80.2591 93.8905 82.0742 93.6609C84.4309 93.039 86.1217 91.5372 88.2305 90.4289Z"/>
	<path fill="#FB9AD2" d="M88.2305 90.4289C88.9622 90.1264 89.6695 89.7502 90.4792 89.9092C91.166 90.419 91.4568 91.0013 91.7081 91.8221C92.154 92.4977 92.6065 93.3458 93.135 93.9482L93.1808 94.2029L92.4561 94.4074C92.1779 95.0441 92.3011 95.6216 92.5527 96.2497C93.033 97.4485 93.7526 98.5655 94.463 99.6383L94.3973 99.777C93.1186 102.447 90.8622 105.005 87.9991 105.98C85.7056 106.76 82.9667 106.698 80.7817 105.618C80.1204 105.291 79.5152 104.902 79.0752 104.295C77.7655 102.488 75.3425 95.3606 74.5453 92.995L73.8928 92.7102L74.179 92.0453C74.9336 91.8483 75.3475 92.0272 76.0059 92.4125Q76.5194 92.7166 77.0238 93.0355C78.7562 93.4734 80.2591 93.8905 82.0742 93.6609C84.4309 93.039 86.1217 91.5372 88.2305 90.4289Z"/>
	<path fill="#E186D6" d="M88.2305 90.4289C88.9622 90.1264 89.6695 89.7502 90.4792 89.9092C91.166 90.419 91.4568 91.0013 91.7081 91.8221C89.5624 94.1239 87.5203 96.4013 84.1452 96.5359C82.0074 96.6211 79.6155 95.7844 78.0461 94.3133C77.6525 93.9444 77.3277 93.4783 77.0238 93.0355C78.7562 93.4734 80.2591 93.8905 82.0742 93.6609C84.4309 93.039 86.1217 91.5372 88.2305 90.4289Z"/>
	<path fill="#6F1415" d="M129.644 136.237C130.099 141.691 130.649 147.198 126.876 151.693C124.224 154.854 121.201 156.389 117.094 156.717C111.921 157.129 107.941 154.234 103.72 157.754C101.982 159.203 100.559 161.029 98.8279 162.481C97.7307 162.97 96.4728 162.982 95.2895 163.059C88.2922 163.509 87.3536 160.162 84.5736 159.943C83.9576 159.895 78.4954 163.748 77.0533 164.275C74.9744 165.036 72.6888 165.198 70.4891 165.149C64.8045 165.022 62.2011 161.575 58.5934 157.776C55.6399 158.447 52.6443 159.102 49.5943 158.822C38.8141 157.832 43.2018 145.822 40.3797 142.575C39.1256 141.133 33.5195 141.706 31.5083 141.586C30.5849 140.872 29.7916 140.278 28.6647 139.934C29.6044 139.508 30.5778 139.298 31.5754 139.051C34.543 139.092 37.6836 139.182 40.4882 138.095C41.4892 138.584 42.3944 139.093 43.537 139.081C43.4658 143.732 43.013 151.916 46.537 155.462C47.6384 156.57 49.2012 156.954 50.7207 156.94C54.5425 156.902 58.474 153.989 61.8075 157.205C65.0576 160.341 64.9262 162.947 70.2471 162.861C70.8327 162.851 71.4199 162.798 72.0026 162.741C77.153 162.702 80.6068 159.838 84.3194 156.577C86.8092 158.326 89.3144 160.146 92.1437 161.309C92.2744 161.363 92.3526 161.418 92.4524 161.516C99.4146 161.88 99.2071 155.949 105.027 154.045C110.03 152.409 115.035 155.55 119.924 154.162C122.922 153.311 125.428 150.851 126.912 148.177C128.636 145.071 128.823 142.066 127.858 138.701C128.201 138.645 128.217 138.661 128.523 138.832L128.852 140.512L129.266 140.404C129.753 139.249 129.483 137.525 129.644 136.237Z"/>
</svg>
